<?xml version="1.0"?>
<svg
  xmlns="http://www.w3.org/2000/svg"
  viewBox="0 0 68.766891 80.026428"
  width="68.766891"
  height="80.026428"
  fill="#203f63"
>
  <path
    d="m 16.153937,75.607532 c 0.4,-4.8 1.3,-6.7 1.5,-9.8 -0.6,-1.9 -2.4,-6.7 -4.2,-10.1 -0.6,-1.4 -1.5,-24.7 -1.5,-32.7 -9.5000003,-3.4 -12.40000028,-2 -11.90000028,-12.1 3.49999998,-0.5 7.99999998,-0.7 12.40000028,-1.2000004 1.2,-3.5 0.8,-4.9 7.9,-4.5 1.1,-2.4 0.1,-4.79999995 0.4,-5.09999995 0.5,-0.8 4.1,3.09999995 4.4,3.89999995 0.7,2 -0.1,2.3 1.7,6.4000004 4,9 4.8,19.1 7.8,28.6 9.4,10.6 21.5,18.5 25,34.8 1.4,-0.3 3.8,-1.8 4.2,-3.3 0.5,-5.6 -7.5,-11.4 -3.2,-12 4.1,-0.6 7.9,7.7 8.1,11.8 0.6,11.1 -19.8,9.6 -27.1,9.7 -3.8,0 -15.1,0 -15.1,0 0,0 -0.7,-2.2 -0.2,-3.1 0.4,-0.6 3.5,-1.1 5.7,-1.6 -2.4,-2.4 -4.4,-4.5 -0.5,-8.6 -2.4,-0.6 -6.7,-1.9 -8.6,-5.7 0.3,2.2 -0.1,3.9 0.4,7.1 -0.8,5 -2.7,8.5 -3.4,11.9 -1.1,0 -4.4,0 -7.3,0 -1.4,-2.8 2.3,-4.5 3.5,-4.4 z"
  />
</svg>
