<?xml version="1.0" encoding="UTF-8" standalone="no"?>
<svg
   xmlns:sketch="http://www.bohemiancoding.com/sketch/ns"
   xmlns:dc="http://purl.org/dc/elements/1.1/"
   xmlns:cc="http://creativecommons.org/ns#"
   xmlns:rdf="http://www.w3.org/1999/02/22-rdf-syntax-ns#"
   xmlns:svg="http://www.w3.org/2000/svg"
   xmlns="http://www.w3.org/2000/svg"
   xmlns:sodipodi="http://sodipodi.sourceforge.net/DTD/sodipodi-0.dtd"
   xmlns:inkscape="http://www.inkscape.org/namespaces/inkscape"
   viewBox="0 0 39.868164 52.934082"
   version="1.1"
   x="0px"
   y="0px"
   id="svg24"
   sodipodi:docname="order.svg"
   width="39.868164"
   height="52.934082"
   inkscape:version="0.92.2 5c3e80d, 2017-08-06">
  <metadata
     id="metadata30">
    <rdf:RDF>
      <cc:Work
         rdf:about="">
        <dc:format>image/svg+xml</dc:format>
        <dc:type
           rdf:resource="http://purl.org/dc/dcmitype/StillImage" />
        <dc:title>badge_018-award-emblem-approval-crown</dc:title>
      </cc:Work>
    </rdf:RDF>
  </metadata>
  <defs
     id="defs28" />
  <sodipodi:namedview
     pagecolor="#ffffff"
     bordercolor="#666666"
     borderopacity="1"
     objecttolerance="10"
     gridtolerance="10"
     guidetolerance="10"
     inkscape:pageopacity="0"
     inkscape:pageshadow="2"
     inkscape:window-width="638"
     inkscape:window-height="1030"
     id="namedview26"
     showgrid="false"
     inkscape:zoom="3.4327273"
     inkscape:cx="-5.1294776"
     inkscape:cy="19.559082"
     inkscape:window-x="1280"
     inkscape:window-y="24"
     inkscape:window-maximized="0"
     inkscape:current-layer="svg24" />
  <title
     id="title2">badge_018-award-emblem-approval-crown</title>
  <desc
     id="desc4">Created with Sketch.</desc>
  <g
     sketch:type="MSPage"
     id="g18"
     style="fill:none;fill-rule:evenodd;stroke:none;stroke-width:1"
     transform="translate(-0.06591832,-1)">
    <g
       sketch:type="MSArtboardGroup"
       transform="translate(-455,-225)"
       id="g16"
       style="fill:#000000">
      <g
         sketch:type="MSLayerGroup"
         transform="translate(455,226)"
         id="g14">
        <path
           d="M 27.380931,29.866696 23,36 20.291508,26.971693 C 20.980406,26.836012 21.5,26.228685 21.5,25.5 21.5,24.671573 20.828427,24 20,24 c -0.828427,0 -1.5,0.671573 -1.5,1.5 0,0.728685 0.519593,1.336012 1.208492,1.471693 L 17,36 12.619069,29.866696 C 13.138634,29.630976 13.5,29.107689 13.5,28.5 13.5,27.671573 12.828427,27 12,27 c -0.828427,0 -1.5,0.671573 -1.5,1.5 0,0.828427 0.671573,1.5 1.5,1.5 0.06087,0 0.120901,-0.0036 0.179877,-0.01067 L 14,40 c 0,0 3,-0.550415 6,-0.550415 3,0 6,0.550415 6,0.550415 L 27.820123,29.989326 C 27.879099,29.996374 27.939126,30 28,30 c 0.828427,0 1.5,-0.671573 1.5,-1.5 0,-0.828427 -0.671573,-1.5 -1.5,-1.5 -0.828427,0 -1.5,0.671573 -1.5,1.5 0,0.607689 0.361366,1.130976 0.880931,1.366696 z"
           sketch:type="MSShapeGroup"
           id="path6"
           inkscape:connector-curvature="0" />
        <path
           d="m 23.063156,52.859978 c 0.521764,0.176874 1.289663,0.02611 1.706942,-0.339532 l 1.677063,-1.469517 c 0.414361,-0.363081 1.204336,-0.691648 1.757942,-0.728164 l 2.224968,-0.146757 c 0.549735,-0.03626 1.201484,-0.469414 1.447076,-0.966905 l 0.987044,-1.999441 c 0.243875,-0.494012 0.84798,-1.099879 1.345471,-1.345471 l 1.999441,-0.987044 c 0.494013,-0.243875 0.93039,-0.89347 0.966905,-1.447076 l 0.146757,-2.224968 c 0.03626,-0.549734 0.362526,-1.340663 0.728164,-1.757942 l 1.469517,-1.677063 c 0.363081,-0.414361 0.517652,-1.181503 0.339532,-1.706942 l -0.715873,-2.111764 c -0.176874,-0.521765 -0.178119,-1.377345 0,-1.902784 l 0.715873,-2.111764 c 0.176874,-0.521764 0.02611,-1.289663 -0.339532,-1.706942 l -1.469517,-1.677063 c -0.363081,-0.414361 -0.691648,-1.204336 -0.728164,-1.757942 l -0.146757,-2.224968 c -0.03626,-0.549735 -0.469414,-1.201484 -0.966905,-1.447076 l -1.999441,-0.987044 c -0.494012,-0.243875 -1.099879,-0.84798 -1.345471,-1.345471 l -0.987044,-1.999441 c -0.243875,-0.494013 -0.89347,-0.930389 -1.447076,-0.966905 l -2.224968,-0.146757 c -0.549734,-0.03626 -1.340663,-0.362526 -1.757942,-0.728164 l -1.677063,-1.469517 c -0.414361,-0.363081 -1.181503,-0.517652 -1.706942,-0.339532 l -2.111764,0.715873 c -0.521765,0.176874 -1.377345,0.17812 -1.902784,0 l -2.111764,-0.715873 c -0.521764,-0.176874 -1.289663,-0.02611 -1.706942,0.339532 l -1.677063,1.469517 c -0.414361,0.363081 -1.204336,0.691648 -1.757942,0.728164 L 9.5699288,15.823992 C 9.0201941,15.860252 8.368445,16.293406 8.1228533,16.790897 L 7.1358088,18.790338 C 6.8919344,19.28435 6.2878291,19.890217 5.7903377,20.135809 L 3.790897,21.122853 c -0.4940125,0.243875 -0.9303895,0.89347 -0.966905,1.447076 l -0.1467573,2.224968 c -0.03626,0.549734 -0.3625255,1.340663 -0.7281637,1.757942 l -1.46951681,1.677063 c -0.36308136,0.414361 -0.51765181,1.181503 -0.33953186,1.706942 l 0.71587227,2.111764 c 0.1768744,0.521765 0.1781199,1.377345 0,1.902784 l -0.71587227,2.111764 c -0.17687439,0.521764 -0.0261064,1.289663 0.33953186,1.706942 L 1.949071,39.447161 c 0.3630814,0.414361 0.6916482,1.204336 0.7281637,1.757942 l 0.1467573,2.224968 c 0.03626,0.549735 0.4694136,1.201484 0.966905,1.447076 l 1.9994407,0.987044 c 0.4940125,0.243875 1.0998793,0.84798 1.3454711,1.345471 l 0.9870445,1.999441 c 0.2438743,0.494013 0.8934695,0.93039 1.4470755,0.966905 l 2.2249682,0.146757 c 0.549734,0.03626 1.340663,0.362526 1.757942,0.728164 l 1.677063,1.469517 c 0.414361,0.363081 1.181503,0.517652 1.706942,0.339532 l 2.111764,-0.715873 c 0.521765,-0.176874 1.377345,-0.178119 1.902784,0 z M 20,48 C 28.284271,48 35,41.284271 35,33 35,24.715729 28.284271,18 20,18 11.715729,18 5,24.715729 5,33 c 0,8.284271 6.715729,15 15,15 z"
           sketch:type="MSShapeGroup"
           id="path8"
           inkscape:connector-curvature="0" />
        <circle
           sketch:type="MSShapeGroup"
           cx="20"
           cy="11"
           r="2"
           id="circle10" />
        <path
           d="M 29.008197,0 H 10.991803 C 10.444045,0 10,0.45303631 10,0.99703014 V 7.0029699 C 10,7.5536144 10.455306,8 10.991803,8 H 29.008197 C 29.555955,8 30,7.5469637 30,7.0029699 V 0.99703014 C 30,0.4463856 29.544694,0 29.008197,0 Z"
           sketch:type="MSShapeGroup"
           id="path12"
           inkscape:connector-curvature="0" />
      </g>
    </g>
  </g>
</svg>
