<?xml version="1.0" encoding="UTF-8" standalone="no"?>
<svg
   xmlns:dc="http://purl.org/dc/elements/1.1/"
   xmlns:cc="http://creativecommons.org/ns#"
   xmlns:rdf="http://www.w3.org/1999/02/22-rdf-syntax-ns#"
   xmlns:svg="http://www.w3.org/2000/svg"
   xmlns="http://www.w3.org/2000/svg"
   xmlns:sodipodi="http://sodipodi.sourceforge.net/DTD/sodipodi-0.dtd"
   xmlns:inkscape="http://www.inkscape.org/namespaces/inkscape"
   version="1.1"
   x="0px"
   y="0px"
   viewBox="0 0 77.033997 77.033997"
   enable-background="new 0 0 100 100"
   xml:space="preserve"
   id="svg8"
   sodipodi:docname="question.svg"
   width="77.033997"
   height="77.033997"
  fill="#203f63"
   inkscape:version="0.92.2 5c3e80d, 2017-08-06"><metadata
     id="metadata14"><rdf:RDF><cc:Work
         rdf:about=""><dc:format>image/svg+xml</dc:format><dc:type
           rdf:resource="http://purl.org/dc/dcmitype/StillImage" /><dc:title></dc:title></cc:Work></rdf:RDF></metadata><defs
     id="defs12" /><sodipodi:namedview
     pagecolor="#ffffff"
     bordercolor="#666666"
     borderopacity="1"
     objecttolerance="10"
     gridtolerance="10"
     guidetolerance="10"
     inkscape:pageopacity="0"
     inkscape:pageshadow="2"
     inkscape:window-width="638"
     inkscape:window-height="1030"
     id="namedview10"
     showgrid="false"
     inkscape:zoom="1.888"
     inkscape:cx="-21.864356"
     inkscape:cy="26.017"
     inkscape:window-x="1280"
     inkscape:window-y="24"
     inkscape:window-maximized="0"
     inkscape:current-layer="svg8" /><path
     d="M 38.517,0 V 0 C 17.332,0 0,17.332 0,38.517 v 0 c 0,21.185 17.332,38.517 38.517,38.517 v 0 c 21.185,0 38.517,-17.332 38.517,-38.517 v 0 C 77.034,17.332 59.702,0 38.517,0 Z m 2.586,64.021 c -1.149,1.244 -2.706,1.867 -4.669,1.867 h -0.071 c -1.916,0 -3.46,-0.623 -4.633,-1.867 -1.174,-1.244 -1.76,-2.801 -1.76,-4.668 0,-1.963 0.599,-3.543 1.796,-4.74 1.196,-1.196 2.729,-1.796 4.597,-1.796 1.914,0 3.471,0.6 4.668,1.796 1.196,1.197 1.795,2.777 1.795,4.74 0,1.867 -0.575,3.424 -1.723,4.668 z m 9.551,-33.252 c -0.383,1.148 -0.873,2.215 -1.472,3.195 -0.599,0.982 -1.257,1.893 -1.976,2.729 -0.718,0.839 -1.436,1.641 -2.154,2.406 -2.441,2.586 -3.662,5.243 -3.662,7.973 0,0.671 -0.192,1.221 -0.574,1.651 -0.385,0.431 -0.91,0.646 -1.58,0.646 h -5.244 c -0.67,0 -1.197,-0.216 -1.579,-0.646 -0.384,-0.431 -0.575,-0.98 -0.575,-1.651 0,-1.771 0.311,-3.566 0.934,-5.387 0.622,-1.818 1.699,-3.639 3.232,-5.459 1.148,-1.388 2.13,-2.68 2.944,-3.877 0.813,-1.197 1.222,-2.395 1.222,-3.592 0,-1.244 -0.42,-2.273 -1.258,-3.088 -0.838,-0.813 -2.143,-1.221 -3.914,-1.221 -0.814,0 -1.676,0.107 -2.585,0.322 -0.91,0.216 -1.772,0.467 -2.586,0.755 -0.144,0.048 -0.276,0.084 -0.396,0.107 -0.119,0.024 -0.25,0.036 -0.395,0.036 -1.006,0 -1.651,-0.526 -1.939,-1.58 l -1.148,-3.735 c -0.097,-0.287 -0.144,-0.526 -0.144,-0.718 0,-0.813 0.599,-1.483 1.796,-2.011 1.292,-0.622 2.775,-1.077 4.452,-1.365 1.675,-0.287 3.472,-0.431 5.387,-0.431 2.345,0 4.381,0.3 6.104,0.898 1.724,0.599 3.16,1.413 4.309,2.441 1.149,1.03 1.999,2.215 2.551,3.555 0.549,1.341 0.825,2.753 0.825,4.238 0,1.391 -0.192,2.659 -0.575,3.809 z"
     id="path2"
     inkscape:connector-curvature="0"
     style="clip-rule:evenodd;fill-rule:evenodd" /></svg>
