<?xml version="1.0" encoding="UTF-8" standalone="no"?>
<svg
   xmlns:dc="http://purl.org/dc/elements/1.1/"
   xmlns:cc="http://creativecommons.org/ns#"
   xmlns:rdf="http://www.w3.org/1999/02/22-rdf-syntax-ns#"
   xmlns:svg="http://www.w3.org/2000/svg"
   xmlns="http://www.w3.org/2000/svg"
   xmlns:sodipodi="http://sodipodi.sourceforge.net/DTD/sodipodi-0.dtd"
   xmlns:inkscape="http://www.inkscape.org/namespaces/inkscape"
   version="1.1"
   x="0px"
   y="0px"
   viewBox="-909 491 80.178688 94.955582"
   xml:space="preserve"
   id="svg8"
   sodipodi:docname="sherlock.svg"
   width="80.178688"
   height="94.955582"
   inkscape:version="0.92.2 5c3e80d, 2017-08-06"><metadata
     id="metadata14"><rdf:RDF><cc:Work
         rdf:about=""><dc:format>image/svg+xml</dc:format><dc:type
           rdf:resource="http://purl.org/dc/dcmitype/StillImage" /><dc:title></dc:title></cc:Work></rdf:RDF></metadata><defs
     id="defs12" /><sodipodi:namedview
     pagecolor="#ffffff"
     bordercolor="#666666"
     borderopacity="1"
     objecttolerance="10"
     gridtolerance="10"
     guidetolerance="10"
     inkscape:pageopacity="0"
     inkscape:pageshadow="2"
     inkscape:window-width="958"
     inkscape:window-height="1030"
     id="namedview10"
     showgrid="false"
     inkscape:zoom="1.888"
     inkscape:cx="-50.737869"
     inkscape:cy="35.106219"
     inkscape:window-x="960"
     inkscape:window-y="24"
     inkscape:window-maximized="0"
     inkscape:current-layer="svg8" /><path
     d="m -833.13617,555.64936 c -4.8,-0.3 -4.4,1.6 -4.4,1.6 l 0.2,4.6 c 0,0 0,2.4 -1.4,2.3 -1.4,-0.1 -1.8,-2.8 -1.8,-2.8 0,0 -1.1,-4.6 -1.1,-4.6 0,-0.1 0.1,-0.3 0.1,-0.4 0.1,-0.3 0.1,-0.7 0,-1 -0.1,-0.7 -0.2,-1.5 -0.7,-2.1 0,0 -0.8,-0.5 -0.8,-0.4 -0.5,-3.4 -2.2,-6.8 -5.7,-7.8 -0.2,-0.1 -2.5,-0.5 -3.6,-0.7 0.1,-0.3 0.3,-0.6 0.4,-0.9 0.3,-1.2 -0.4,-2.3 -0.8,-3.3 -0.3,-1 -0.2,-1.9 1,-2 1.1,-0.1 3.1,1 3.7,0.8 0.7,-0.1 1.5,-0.7 1.5,-1.5 0,-0.8 -1.2,-2.5 -1.2,-2.5 0,0 -1.6,-3.2 -2.1,-4.6 -0.5,-1.4 -2.3,-2.7 -2.3,-2.7 0,0 -1.8,-1.3 -1.6,-2.2 0.2,-0.9 0.9,-1.2 1.2,-2.1 1,0.1 2.1,0.4 2.9,0.5 2.9,0.4 6.7,1.2 9,0.7 0,0 1.2,-0.1 0,-1 -1.2,-0.9 -4.1,-3.7 -5,-4.7 -0.9,-1 -4.1,-3.1 -4.7,-4.4 -1.9,-3.9 -2.4,-8.6 -5.6,-11.9 -2.3,-2.4 -5.2,-4.3 -8.2,-5.6 1.1,0.2 2.2,0.3 3.3,0.3 0.1,0 0.3,0 0.4,0 v -0.9 c -2.8,0.1 -6,-0.6 -8.3,-1.2 0.5,0 1,-0.1 1.6,-0.3 1,-0.3 2.9,-1.1 2.5,-2.5 -0.5,-1.9 -3.8,-1.3 -5.1,-1.1 -2.5,0.4 -4.8,1.6 -7,2.8 -0.3,-0.4 -0.8,-0.5 -1.4,-0.4 -0.4,0.1 -0.7,0.3 -0.9,0.5 -0.4,-0.2 -1.7,-0.7 -4.9,-0.7 -2,0 -8.9,2.1 -5.3,4.4 -1.5,0.4 -3.2,0.8 -4.4,0.9 l 0.1,0.9 c 0.7,-0.1 1.5,-0.2 2.4,-0.4 -2.5,1.5 -4.7,3.4 -6.6,5.6 -2,2.3 -3.1,5.4 -3.5,8.3 -0.5,3.6 0.5,7.2 0.3,10.8 -0.2,1.9 -1.2,2.8 -2.2,4.3 -1,1.5 -1.4,3.2 -2.4,4.7 -0.8,1.4 -2.1,2.4 -3.2,3.6 -0.4,0.4 -0.3,0.7 0,0.8 0.1,0 0.2,0 0.4,0 0.8,-0.1 1.5,-0.5 2.2,-0.7 1.1,-0.3 2.2,-0.6 3.2,-1 0.7,-0.3 3,-1 5.4,-1.9 0.1,0.9 0.2,1.9 0.4,2.5 0.4,1.2 2.3,3.4 2.3,3.4 0,0 1.8,1.6 1.9,3.7 0,1.1 -0.3,2 -0.7,2.6 -0.6,-0.4 -2.2,-1 -3.6,0.8 -1.8,2.3 -2.5,4.4 -3.4,5.6 -0.9,1.2 -3,3.6 -3.2,4.7 -0.2,1.1 0.8,2.3 0.8,2.3 l -5.7,10.3 c 0,0 2.5,2.9 8.6,3.3 6.1,0.4 6.5,-1.3 14.3,0.8 7.8,2.1 12.2,13.9 27.5,12 0,0 -2,-6.2 -4.5,-9.9 -2.5,-3.7 -5.4,-7.8 -5.4,-7.8 0.2,-1.1 1.4,-4.6 0.6,-5.4 -0.5,-0.5 -1,-0.9 -1.5,-1.4 0.4,-0.9 0.9,-1.8 0.9,-2.8 0,-0.9 -0.4,-2 -0.1,-2.9 0.2,-0.6 0.8,-1 1.4,-1 0.8,0 1.3,0.7 2.1,0.9 0.8,0.2 2.1,0.1 2.9,0.1 0.9,0 1.7,0.7 2.5,0.9 2.1,0.7 4.4,0.4 5.9,-1.3 1.6,-1.8 0.3,-3.6 0.3,-3.6 0,0 -1.2,-1.5 -1.2,-2.4 0,-0.9 0.7,-1.6 0.7,-1.6 v -0.1 c 0.1,0 0.2,0 0.3,0 0.7,0 1.3,-0.5 1.3,-1 0,-0.2 0,-0.3 -0.1,-0.4 0.5,0.1 1.2,0.2 1.3,0.2 0.8,0.2 1.5,0.4 2.2,0.8 1.4,0.8 2.3,2.2 2.7,3.7 0.1,0.5 0.7,2.2 0.3,2.6 -0.3,0.3 -0.4,1.1 -0.4,1.5 0,0.8 0.3,1.7 0.8,2.3 0.1,0.2 0.6,0.5 0.7,0.7 1.2,5.1 1.6,11.1 8.3,11.6 2.8,0.2 4.4,-1.3 4.4,-1.3 0,0 1.8,-1.1 2.4,-4.1 0.6,-3 0.7,-6.5 0.7,-6.5 0,0 0.5,-1.7 -4.3,-1.9 z m -41.9,-60.9 c -0.4,0 -0.7,0 -1.1,0 0,0 0,-0.1 0,-0.1 0.2,0.1 0.6,0.1 1.1,0.1 z m -7.5,0.5 c 0.3,-0.1 2.5,-0.4 3.4,-0.4 0,0.1 0,0.1 0,0.2 -0.3,0 -0.7,0.1 -1,0.1 -1.6,0.2 -3.3,0.6 -4.9,1.2 0.8,-0.5 1.6,-1 2.5,-1.1 z m -5.5,0.3 c 1.6,-0.8 2.9,-0.9 4.7,-1.1 -1.4,0.1 -3.1,2.5 -4.6,2 -0.4,-0.2 -0.6,-0.6 -0.1,-0.9 z m 16.4,-0.6 c 0.1,0 0.3,0 0.4,0 v 0 c -0.1,0 -0.3,0 -0.4,0 z m 1.1,-1.1 c -0.8,-0.1 -2.2,-0.5 -3,-0.2 1.3,-0.4 2.5,-0.9 3.8,-1.2 0.7,-0.1 1.4,-0.2 2.1,-0.1 1,0.2 1.1,0.9 0.2,1.4 0,0 -0.1,0 -0.1,0 -0.9,0.5 -2,0.2 -3,0.1 z"
     id="path2"
     inkscape:connector-curvature="0" /></svg>