<?xml version="1.0" encoding="UTF-8" standalone="no"?>
<svg
   xmlns:dc="http://purl.org/dc/elements/1.1/"
   xmlns:cc="http://creativecommons.org/ns#"
   xmlns:rdf="http://www.w3.org/1999/02/22-rdf-syntax-ns#"
   xmlns:svg="http://www.w3.org/2000/svg"
   xmlns="http://www.w3.org/2000/svg"
   xmlns:sodipodi="http://sodipodi.sourceforge.net/DTD/sodipodi-0.dtd"
   xmlns:inkscape="http://www.inkscape.org/namespaces/inkscape"
   version="1.1"
   x="0px"
   y="0px"
   viewBox="0 0 53.221012 98.259033"
   enable-background="new 0 0 100 100"
   xml:space="preserve"
   id="svg8"
   sodipodi:docname="latern.svg"
   width="53.221012"
   height="98.259033"
   inkscape:version="0.92.2 5c3e80d, 2017-08-06"><metadata
     id="metadata14"><rdf:RDF><cc:Work
         rdf:about=""><dc:format>image/svg+xml</dc:format><dc:type
           rdf:resource="http://purl.org/dc/dcmitype/StillImage" /><dc:title></dc:title></cc:Work></rdf:RDF></metadata><defs
     id="defs12" /><sodipodi:namedview
     pagecolor="#ffffff"
     bordercolor="#666666"
     borderopacity="1"
     objecttolerance="10"
     gridtolerance="10"
     guidetolerance="10"
     inkscape:pageopacity="0"
     inkscape:pageshadow="2"
     inkscape:window-width="638"
     inkscape:window-height="1030"
     id="namedview10"
     showgrid="false"
     inkscape:zoom="1.888"
     inkscape:cx="22.772947"
     inkscape:cy="37.090031"
     inkscape:window-x="1280"
     inkscape:window-y="24"
     inkscape:window-maximized="0"
     inkscape:current-layer="svg8" /><path
     d="m 53.175816,65.73 -4.023,-46.777 c -0.134,-9.105 -5.954,-11.876 -8.433,-12.648 L 39.651816,0 h -25.615 l -0.629,6.059 c -1.252,0.248 -9.2050002,2.235 -9.3610002,12.894 L 0.02181581,65.73 c 0,0 -0.873,7.785 8.42599999,12.072 l -0.612,0.901 c 0,0 0,4.814 0,4.879 0,0.41 -1.082,1.484 -1.312,1.859 -0.526,0.855 -0.979,1.726 -1.205,2.709 -1.224,5.311 6.4150002,7.473 10.1440002,8.578 5.608,1.662 11.692,1.86 17.472,1.124 5.294,-0.675 17.879,-2.534 14.498,-10.986 -0.312,-0.78 -0.623,-1.587 -1.134,-2.261 -0.425,-0.562 -1.384,-0.881 -1.661,-1.416 -0.405,-0.786 0.013,-2.874 0.013,-3.789 l -0.404,-0.891 c 10.142,-4.106 8.929,-12.779 8.929,-12.779 z m -33.771,4.606 -6.271,0.56 -0.037,0.055 c -0.945,-0.262 -4.9000002,-1.593 -5.1950002,-5.724 L 12.674816,15.935 c 0,0 -0.148,-0.009 0.359,-0.68 l 3.419,3.349 v 2.577 c 0,0 -6.8040002,32.946 -5.132,35.73 0,0 0.836,7.487 6.484,10.055 0,0 0.629,0.14 1.668,0.313 l -0.068,0.002 z m 3.359,-14.197 c 1.398,-8.326 6.903,-4.591 6.903,-4.591 1.201,0.916 2.685,5.562 2.628,9.423 -0.035,2.425 -1.328,4.398 -3.846,4.66 -2.076,0.216 -5.182,-0.381 -6.032,-2.532 -0.746,-1.885 0.011,-4.998 0.347,-6.96 z m 18.194,14.517 -6.4,0.226 -0.049,-3.885 c 1.249,-0.411 2.381,-0.976 3.306,-1.742 0,0 7.11,-7.7 4.253,-18.685 l -3.384,-25.389 v -2.094 l 1.885,-2.69 4.729,48.83 c -0.24,3.32 -2.836,4.828 -4.34,5.429 z"
     id="path2"
     inkscape:connector-curvature="0" /></svg>