<?xml version="1.0" encoding="UTF-8" standalone="no"?>
<svg
   xmlns:dc="http://purl.org/dc/elements/1.1/"
   xmlns:cc="http://creativecommons.org/ns#"
   xmlns:rdf="http://www.w3.org/1999/02/22-rdf-syntax-ns#"
   xmlns:svg="http://www.w3.org/2000/svg"
   xmlns="http://www.w3.org/2000/svg"
   xmlns:sodipodi="http://sodipodi.sourceforge.net/DTD/sodipodi-0.dtd"
   xmlns:inkscape="http://www.inkscape.org/namespaces/inkscape"
   version="1.1"
   x="0px"
   y="0px"
   viewBox="0 0 96.004135 79.842964"
   enable-background="new 0 0 100 100"
   xml:space="preserve"
   id="svg8"
   sodipodi:docname="murder.svg"
   width="96.004135"
   height="79.842964"
   inkscape:version="0.92.2 (5c3e80d, 2017-08-06)"><metadata
     id="metadata14"><rdf:RDF><cc:Work
         rdf:about=""><dc:format>image/svg+xml</dc:format><dc:type
           rdf:resource="http://purl.org/dc/dcmitype/StillImage" /></cc:Work></rdf:RDF></metadata><defs
     id="defs12" /><sodipodi:namedview
     pagecolor="#ffffff"
     bordercolor="#666666"
     borderopacity="1"
     objecttolerance="10"
     gridtolerance="10"
     guidetolerance="10"
     inkscape:pageopacity="0"
     inkscape:pageshadow="2"
     inkscape:window-width="1440"
     inkscape:window-height="866"
     id="namedview10"
     showgrid="false"
     inkscape:zoom="1.888"
     inkscape:cx="47.710745"
     inkscape:cy="27.527792"
     inkscape:window-x="0"
     inkscape:window-y="16"
     inkscape:window-maximized="0"
     inkscape:current-layer="svg8" /><path
     d="m 19.901745,21.297168 -2.011,4.871 -13.8519998,-3.939 -3.67800005,8.217 c -0.924,2.055 -0.014,4.47 2.05600005,5.394 0.256,0.116 0.513,0.206 0.8,0.263 l 16.7519998,3.625 c 1.842,0.389 3.7,-0.514 4.535,-2.194 l 2.547,-5.173 10.808,12.547 -0.888,19.636 c -0.058,1.711 0.939,3.295 2.518,3.948 l 26.642,11.038 c 2.083,0.865 4.475,-0.126 5.334,-2.209 0.051,-0.119 0.089,-0.242 0.139,-0.367 l 1.777,-5.797 c 0.587,-1.973 -0.367,-4.088 -2.238,-4.925 l -19.879,-8.886 1.835,-10.089 18.916,8.702 c 1.489,0.689 3.251,0.412 4.454,-0.688 l 18.199,-16.592 c 1.664,-1.518 1.797,-4.093 0.27,-5.767 -0.204,-0.22 -0.439,-0.417 -0.682,-0.601 l -4.072,-2.818 c -1.512,-1.057 -3.551,-0.961 -4.969,0.234 l -13.149,11.153 -13.663,-6.897 -13.743,-13.876 7.615,-3.332 7.771,7.037 c 1.336,1.218 3.303,1.41 4.843,0.477 l 4.249,-2.561 c 1.922,-1.158 2.539,-3.669 1.387,-5.599 -0.293,-0.492 -0.697,-0.924 -1.18,-1.253 l -13.833,-9.5689997 c -1.063,-0.741 -2.429,-0.924 -3.661,-0.507 l -18,6.2229997 c 0.104,-6.0029997 -4.704,-10.94199973 -10.706,-11.02199973 -6.002,-0.087 -10.948,4.69600003 -11.021,10.70599973 -0.074,4.88 3.112,9.203 7.778,10.59 z"
     id="path2"
     inkscape:connector-curvature="0" /></svg>