<?xml version="1.0" encoding="UTF-8" standalone="no"?>
<svg
   xmlns:dc="http://purl.org/dc/elements/1.1/"
   xmlns:cc="http://creativecommons.org/ns#"
   xmlns:rdf="http://www.w3.org/1999/02/22-rdf-syntax-ns#"
   xmlns:svg="http://www.w3.org/2000/svg"
   xmlns="http://www.w3.org/2000/svg"
   xmlns:sodipodi="http://sodipodi.sourceforge.net/DTD/sodipodi-0.dtd"
   xmlns:inkscape="http://www.inkscape.org/namespaces/inkscape"
   version="1.1"
   x="0px"
   y="0px"
   viewBox="0 0 79.400002 97.205566"
   enable-background="new 0 0 100 100"
   xml:space="preserve"
   id="svg12"
   sodipodi:docname="person.svg"
   width="79.400002"
   height="97.205566"
   inkscape:version="0.92.2 5c3e80d, 2017-08-06"><metadata
     id="metadata18"><rdf:RDF><cc:Work
         rdf:about=""><dc:format>image/svg+xml</dc:format><dc:type
           rdf:resource="http://purl.org/dc/dcmitype/StillImage" /><dc:title></dc:title></cc:Work></rdf:RDF></metadata><defs
     id="defs16" /><sodipodi:namedview
     pagecolor="#ffffff"
     bordercolor="#666666"
     borderopacity="1"
     objecttolerance="10"
     gridtolerance="10"
     guidetolerance="10"
     inkscape:pageopacity="0"
     inkscape:pageshadow="2"
     inkscape:window-width="638"
     inkscape:window-height="1030"
     id="namedview14"
     showgrid="false"
     inkscape:zoom="1.888"
     inkscape:cx="-20.681356"
     inkscape:cy="36.1"
     inkscape:window-x="1280"
     inkscape:window-y="24"
     inkscape:window-maximized="0"
     inkscape:current-layer="svg12" /><g
     id="g6"
     transform="translate(-10.3,-1.3944308)"><path
       d="m 24.3,44.9 c 0.6,2 1.6,5.8 4,8 1.8,6.6 7,14.3 15.4,17.3 2,0.7 4.1,1.1 6.3,1.1 2.1,0 4.2,-0.4 6.2,-1.1 8.4,-3 13.6,-10.6 15.4,-17.3 2.4,-2.2 3.4,-6 4,-8 0.9,-3.2 1.8,-7.7 -0.6,-10.9 -0.1,-0.1 -0.2,-0.2 -0.3,-0.4 0.2,-1.1 0.3,-2.2 0.4,-3.2 2.8,-18.8 -7.6,-20 -8.8,-20 -0.1,0 -0.1,-0.1 -0.2,-0.1 C 64.9,5.4 57.9,0.3 51.3,1.6 44.8,3 31.1,1.4 31.1,1.4 c -0.2,2.9 2.3,4.9 2.3,4.9 -11.5,7 -9.4,22 -8.3,27.3 -0.1,0.1 -0.2,0.2 -0.3,0.4 -2.3,3.2 -1.4,7.7 -0.5,10.9 z m 6,-8.8 c 0.1,0 0.2,0 0.3,0 0,0 0,-0.1 0,-0.1 -0.3,-1 -1.7,-6.7 3.2,-10.1 4,0.9 10,1.1 18.2,-2.4 15.7,-6.7 17.1,12.7 17.1,12.7 v 0 c 0.1,0 0.2,0 0.3,0 1.6,0 3.3,1.3 1.5,7.5 -1.4,4.9 -2.7,6.3 -3.6,6.3 -0.9,5.8 -5.4,13.2 -12.8,15.8 -1.5,0.5 -3.1,0.8 -4.7,0.8 -1.6,0 -3.2,-0.3 -4.7,-0.8 -7.3,-2.6 -11.9,-10 -12.8,-15.8 -1,-0.1 -2.3,-1.4 -3.6,-6.3 -1.7,-6.4 0,-7.6 1.6,-7.6 z"
       id="path2"
       inkscape:connector-curvature="0" /><path
       d="m 70.1,66.1 c -3,3.7 -7.1,6.9 -12.3,8.7 -2.5,0.9 -5.1,1.3 -7.8,1.3 -2.7,0 -5.4,-0.5 -7.9,-1.4 C 36.9,72.8 32.9,69.6 29.9,66 v 0 c -4.3,2.3 -11.8,6.5 -19.6,12.2 8.9,12.4 23.4,20.4 39.7,20.4 16.3,0 30.8,-8 39.7,-20.3 C 81.9,72.6 74.5,68.4 70.1,66.1 Z"
       id="path4"
       inkscape:connector-curvature="0" /></g></svg>