<?xml version="1.0"?>
<svg
  xmlns="http://www.w3.org/2000/svg"
  xmlns:inkscape="http://www.inkscape.org/namespaces/inkscape"
  viewBox="0 0 84.444916 83.685295"
  width="84.444916"
  height="83.685295"
>
  <switch
    transform="translate(-8.0703399,-8.3147039)">
    <g id="g194">
      <g style="display:none">
        <g style="display:inline">
          <path
            d="m 83.6,35.8 c 0,-10.5 -8.5,-19 -19,-19 -7.9,0 -15,6.5 -17.1,20 -2.1,18.1 -14.6,16.6 -18.1,19 -3.5,2.4 -3.8,5.6 -3.8,8.6 0,5.2 4.3,9.5 9.5,9.5 6.6,0 27.1,-8.6 36.1,-16.2 9,-7.6 12.4,-13.8 12.4,-21.9 z"
            style="fill:none;stroke:#000000;stroke-width:4;stroke-linecap:round;stroke-linejoin:round;stroke-miterlimit:10" />
          <path
            stroke-miterlimit="10"
            d="m 56.1,33.9 c 0,-5.8 4.7,-10.5 10.5,-10.5"
            style="fill:none;stroke:#000000;stroke-width:4;stroke-linecap:round;stroke-linejoin:round;stroke-miterlimit:10" />
          <circle
            stroke-miterlimit="10"
            cx="67.099998"
            cy="34.900002"
            r="5.0999999"
            id="circle6"
            style="fill:none;stroke:#000000;stroke-width:4;stroke-linecap:round;stroke-linejoin:round;stroke-miterlimit:10" />
          <path
            stroke-miterlimit="10"
            d="m 26.6,68.6 c 0,0 -9.7,1.2 -9.2,7.2 C 18.7,91.6 43.5,75 38,90"
            style="fill:none;stroke:#000000;stroke-width:4;stroke-linecap:round;stroke-linejoin:round;stroke-miterlimit:10" />
          <line
            stroke-miterlimit="10"
            x1="21.200001"
            y1="63"
            x2="25.700001"
            y2="63"
            style="fill:none;stroke:#000000;stroke-width:4;stroke-linecap:round;stroke-linejoin:round;stroke-miterlimit:10" />
          <line
            stroke-miterlimit="10"
            x1="31.4"
            y1="51"
            x2="33.299999"
            y2="53.900002"
            style="fill:none;stroke:#000000;stroke-width:4;stroke-linecap:round;stroke-linejoin:round;stroke-miterlimit:10" />
          <line
            stroke-miterlimit="10"
            x1="37.099998"
            y1="48.200001"
            x2="39.900002"
            y2="51"
            style="fill:none;stroke:#000000;stroke-width:4;stroke-linecap:round;stroke-linejoin:round;stroke-miterlimit:10" />
          <line
            stroke-miterlimit="10"
            x1="23.6"
            y1="55.299999"
            x2="26.6"
            y2="56.700001"
            style="fill:none;stroke:#000000;stroke-width:4;stroke-linecap:round;stroke-linejoin:round;stroke-miterlimit:10" />
          <line
            stroke-miterlimit="10"
            x1="39"
            y1="74.800003"
            x2="39.400002"
            y2="78.099998"
            style="fill:none;stroke:#000000;stroke-width:4;stroke-linecap:round;stroke-linejoin:round;stroke-miterlimit:10" />
          <line
            stroke-miterlimit="10"
            x1="31.4"
            y1="73.800003"
            x2="29.5"
            y2="76.300003"
            id="line20"
            style="fill:none;stroke:#000000;stroke-width:4;stroke-linecap:round;stroke-linejoin:round;stroke-miterlimit:10" />
          <line
            stroke-miterlimit="10"
            x1="45.599998"
            y1="72.900002"
            x2="46.700001"
            y2="76.699997"
            style="fill:none;stroke:#000000;stroke-width:4;stroke-linecap:round;stroke-linejoin:round;stroke-miterlimit:10" />
          <line
            stroke-miterlimit="10"
            x1="51.299999"
            y1="69.099998"
            x2="53.200001"
            y2="72.900002"
            style="fill:none;stroke:#000000;stroke-width:4;stroke-linecap:round;stroke-linejoin:round;stroke-miterlimit:10" />
          <line
            stroke-miterlimit="10"
            x1="57.099998"
            y1="66.5"
            x2="58.799999"
            y2="70.800003"
            style="fill:none;stroke:#000000;stroke-width:4;stroke-linecap:round;stroke-linejoin:round;stroke-miterlimit:10" />
          <line
            stroke-miterlimit="10"
            x1="62.700001"
            y1="63.400002"
            x2="64.599998"
            y2="67.199997"
            style="fill:none;stroke:#000000;stroke-width:4;stroke-linecap:round;stroke-linejoin:round;stroke-miterlimit:10" />
          <line
            stroke-miterlimit="10"
            x1="68.5"
            y1="60.5"
            x2="70.300003"
            y2="63.400002"
            style="fill:none;stroke:#000000;stroke-width:4;stroke-linecap:round;stroke-linejoin:round;stroke-miterlimit:10" />
          <line
            stroke-miterlimit="10"
            x1="74.099998"
            y1="55.799999"
            x2="76"
            y2="59.599998"
            id="line32"
            style="fill:none;stroke:#000000;stroke-width:4;stroke-linecap:round;stroke-linejoin:round;stroke-miterlimit:10" />
          <line
            stroke-miterlimit="10"
            x1="78.900002"
            y1="51"
            x2="82.699997"
            y2="54.799999"
            style="fill:none;stroke:#000000;stroke-width:4;stroke-linecap:round;stroke-linejoin:round;stroke-miterlimit:10" />
          <line
            stroke-miterlimit="10"
            x1="82.699997"
            y1="44.400002"
            x2="87.400002"
            y2="47.200001"
            style="fill:none;stroke:#000000;stroke-width:4;stroke-linecap:round;stroke-linejoin:round;stroke-miterlimit:10" />
          <line
            stroke-miterlimit="10"
            x1="84.599998"
            y1="36.799999"
            x2="89.699997"
            y2="37.799999"
            style="fill:none;stroke:#000000;stroke-width:4;stroke-linecap:round;stroke-linejoin:round;stroke-miterlimit:10" />
          <line
            stroke-miterlimit="10"
            x1="82.699997"
            y1="29.200001"
            x2="88"
            y2="27.9"
            id="line40"
            style="fill:none;stroke:#000000;stroke-width:4;stroke-linecap:round;stroke-linejoin:round;stroke-miterlimit:10" />
          <line
            stroke-miterlimit="10"
            x1="79.800003"
            y1="22.5"
            x2="85.800003"
            y2="18.700001"
            id="line42"
            style="fill:none;stroke:#000000;stroke-width:4;stroke-linecap:round;stroke-linejoin:round;stroke-miterlimit:10" />
          <line
            stroke-miterlimit="10"
            x1="72.199997"
            y1="17.700001"
            x2="76.699997"
            y2="10.4"
            id="line44"
            style="fill:none;stroke:#000000;stroke-width:4;stroke-linecap:round;stroke-linejoin:round;stroke-miterlimit:10" /><line
          stroke-miterlimit="10"
          x1="40.900002"
          y1="41.5"
          x2="45.599998"
          y2="44.200001"
          id="line46"
          style="fill:none;stroke:#000000;stroke-width:4;stroke-linecap:round;stroke-linejoin:round;stroke-miterlimit:10" /><line
          stroke-miterlimit="10"
          x1="43.700001"
          y1="32"
          x2="47.799999"
          y2="34.400002"
          id="line48"
          style="fill:none;stroke:#000000;stroke-width:4;stroke-linecap:round;stroke-linejoin:round;stroke-miterlimit:10" /><line
          stroke-miterlimit="10"
          x1="47.5"
          y1="23.5"
          x2="50.5"
          y2="26.299999"
          id="line50"
          style="fill:none;stroke:#000000;stroke-width:4;stroke-linecap:round;stroke-linejoin:round;stroke-miterlimit:10" /><line
          stroke-miterlimit="10"
          x1="53.200001"
          y1="15.8"
          x2="55.099998"
          y2="19.6"
          id="line52"
          style="fill:none;stroke:#000000;stroke-width:4;stroke-linecap:round;stroke-linejoin:round;stroke-miterlimit:10" /><line
          stroke-miterlimit="10"
          x1="62.700001"
          y1="11.1"
          x2="63.700001"
          y2="16.799999"
          id="line54"
          style="fill:none;stroke:#000000;stroke-width:4;stroke-linecap:round;stroke-linejoin:round;stroke-miterlimit:10" /></g><path
        display="inline"
        stroke-miterlimit="10"
        d="M 20,20.7 C 21.5,16 26.5,13.4 31.2,14.9"
        id="path58"
        inkscape:connector-curvature="0"
        style="display:inline;fill:none;stroke:#000000;stroke-width:4;stroke-linecap:round;stroke-linejoin:round;stroke-miterlimit:10" /><path
        display="inline"
        stroke-miterlimit="10"
        d="m 12.9,48.7 c -2.8,-1.6 -3.7,-5.2 -2.1,-8"
        id="path60"
        inkscape:connector-curvature="0"
        style="display:inline;fill:none;stroke:#000000;stroke-width:4;stroke-linecap:round;stroke-linejoin:round;stroke-miterlimit:10" /><path
        display="inline"
        stroke-miterlimit="10"
        d="m 22.2,34.5 c 2.3,0.3 3.9,2.3 3.7,4.6"
        id="path62"
        inkscape:connector-curvature="0"
        style="display:inline;fill:none;stroke:#000000;stroke-width:4;stroke-linecap:round;stroke-linejoin:round;stroke-miterlimit:10" /><path
        display="inline"
        stroke-miterlimit="10"
        d="M 79,84.6 C 76.3,82.4 75.9,78.5 78,75.8"
        id="path64"
        inkscape:connector-curvature="0"
        style="display:inline;fill:none;stroke:#000000;stroke-width:4;stroke-linecap:round;stroke-linejoin:round;stroke-miterlimit:10" /><path
        display="inline"
        stroke-miterlimit="10"
        d="m 62.4,85.6 c -2.7,0.6 -5.5,-1.1 -6.1,-3.8"
        id="path66"
        inkscape:connector-curvature="0"
        style="display:inline;fill:none;stroke:#000000;stroke-width:4;stroke-linecap:round;stroke-linejoin:round;stroke-miterlimit:10" /><path
        display="inline"
        stroke-miterlimit="10"
        d="m 84.7,64.6 c 2.2,-1 4.8,-0.1 5.8,2.1"
        id="path68"
        inkscape:connector-curvature="0"
        style="display:inline;fill:none;stroke:#000000;stroke-width:4;stroke-linecap:round;stroke-linejoin:round;stroke-miterlimit:10" /></g><g
      id="g192"><g
      id="g74"><path
      d="m 35.2,75.8 c -6.3,0 -11.5,-5.2 -11.5,-11.5 0,-2.3 0,-7 4.7,-10.2 1,-0.7 2.4,-1.1 4,-1.5 5,-1.4 11.7,-3.3 13.2,-16 2.4,-16.1 11.4,-21.8 19,-21.8 11.6,0 21,9.4 21,21 0,8.9 -3.7,15.5 -13.1,23.4 -9.3,7.9 -30.2,16.6 -37.3,16.6 z m 29.4,-57 c -7.7,0 -13.4,6.8 -15.1,18.3 -1.7,15.4 -11.1,18 -16.1,19.4 -1.2,0.3 -2.3,0.6 -2.8,1 -2.5,1.7 -2.9,3.8 -2.9,6.9 0,4.1 3.4,7.5 7.5,7.5 5.6,0 25.8,-8.1 34.8,-15.7 8.5,-7.1 11.6,-12.6 11.6,-20.3 0,-9.5 -7.6,-17.1 -17,-17.1 z"
      id="path72"
      inkscape:connector-curvature="0" /></g><g
      id="g78"><path
      d="m 56.1,35.9 c -1.1,0 -2,-0.9 -2,-2 0,-6.9 5.6,-12.5 12.5,-12.5 1.1,0 2,0.9 2,2 0,1.1 -0.9,2 -2,2 -4.7,0 -8.5,3.8 -8.5,8.5 0,1.1 -0.9,2 -2,2 z"
      id="path76"
      inkscape:connector-curvature="0" /></g><g
      id="g82"><path
      d="m 67.1,41.9 c -3.9,0 -7.1,-3.2 -7.1,-7.1 0,-3.9 3.2,-7.1 7.1,-7.1 3.9,0 7.1,3.2 7.1,7.1 0,3.9 -3.2,7.1 -7.1,7.1 z m 0,-10.1 c -1.7,0 -3.1,1.4 -3.1,3.1 0,1.7 1.4,3.1 3.1,3.1 1.7,0 3.1,-1.4 3.1,-3.1 0,-1.7 -1.4,-3.1 -3.1,-3.1 z"
      id="path80"
      inkscape:connector-curvature="0" /></g><g
      id="g86"><path
      d="m 38,92 c -0.2,0 -0.5,0 -0.7,-0.1 -1,-0.4 -1.6,-1.5 -1.2,-2.6 1,-2.8 0.6,-3.6 0.5,-3.6 -0.6,-0.8 -3.7,-0.6 -6,-0.5 -5.8,0.3 -14.5,0.7 -15.3,-9.3 -0.5,-6.2 6.6,-8.8 10.9,-9.3 1.1,-0.1 2.1,0.6 2.2,1.7 0.1,1.1 -0.6,2.1 -1.7,2.2 -0.1,0 -7.8,1.1 -7.5,5 0.4,5.5 3.9,6 11.1,5.6 3.9,-0.2 7.5,-0.4 9.4,2.1 1.6,2.2 0.8,5.3 0,7.4 C 39.6,91.5 38.8,92 38,92 Z"
      id="path84"
      inkscape:connector-curvature="0" /></g><g
      id="g90"><path
      d="m 21.2,65 c -1.1,0 -2,-0.9 -2,-2 0,-1.1 0.9,-2 2,-2 h 4.4 c 0,0 0,0 0,0 1.1,0 2,0.9 2,2 0,1.1 -0.9,2 -2,2 h -4.4 c 0,0 0,0 0,0 z"
      id="path88"
      inkscape:connector-curvature="0" /></g><g
      id="g94"><path
      d="M 33.3,55.9 C 32.7,55.9 32,55.6 31.6,55 l -1.9,-2.9 c -0.6,-0.9 -0.4,-2.2 0.6,-2.8 0.9,-0.6 2.2,-0.4 2.8,0.6 l 1.9,2.9 c 0.6,0.9 0.4,2.2 -0.6,2.8 -0.4,0.2 -0.8,0.3 -1.1,0.3 z"
      id="path92"
      inkscape:connector-curvature="0" /></g><g
      id="g98"><path
      d="m 39.9,53 c -0.5,0 -1,-0.2 -1.4,-0.6 l -2.9,-2.9 c -0.8,-0.8 -0.8,-2 0,-2.8 0.8,-0.8 2,-0.8 2.8,0 l 2.9,2.9 c 0.8,0.8 0.8,2 0,2.8 -0.4,0.4 -0.9,0.6 -1.4,0.6 z"
      id="path96"
      inkscape:connector-curvature="0" /></g><g
      id="g102"><path
      d="m 26.6,58.7 c -0.3,0 -0.6,-0.1 -0.9,-0.2 l -3,-1.4 c -1,-0.5 -1.4,-1.7 -1,-2.7 0.5,-1 1.7,-1.4 2.7,-1 l 3,1.4 c 1,0.5 1.4,1.7 1,2.7 -0.3,0.8 -1,1.2 -1.8,1.2 z"
      id="path100"
      inkscape:connector-curvature="0" /></g><g
      id="g106"><path
      d="m 39.4,80.1 c -1,0 -1.8,-0.7 -2,-1.7 L 37,75 c -0.2,-1.1 0.6,-2.1 1.7,-2.3 1.1,-0.2 2.1,0.6 2.3,1.7 l 0.5,3.3 c 0.2,1.1 -0.6,2.1 -1.7,2.3 -0.2,0.1 -0.3,0.1 -0.4,0.1 z"
      id="path104"
      inkscape:connector-curvature="0" /></g><g
      id="g110"><path
      d="m 29.5,78.3 c -0.4,0 -0.8,-0.1 -1.2,-0.4 -0.9,-0.7 -1.1,-1.9 -0.4,-2.8 l 1.9,-2.5 c 0.7,-0.9 1.9,-1.1 2.8,-0.4 0.9,0.7 1.1,1.9 0.4,2.8 l -1.9,2.5 c -0.4,0.6 -1,0.8 -1.6,0.8 z"
      id="path108"
      inkscape:connector-curvature="0" /></g><g
      id="g114"><path
      d="m 46.7,78.7 c -0.9,0 -1.7,-0.6 -1.9,-1.4 l -1.1,-3.8 c -0.3,-1.1 0.3,-2.2 1.4,-2.5 1.1,-0.3 2.2,0.3 2.5,1.4 l 1.1,3.8 c 0.3,1.1 -0.3,2.2 -1.4,2.5 -0.2,-0.1 -0.4,0 -0.6,0 z"
      id="path112"
      inkscape:connector-curvature="0" /></g><g
      id="g118"><path
      d="m 53.2,74.9 c -0.7,0 -1.4,-0.4 -1.8,-1.1 L 49.5,70 c -0.5,-1 -0.1,-2.2 0.9,-2.7 1,-0.5 2.2,-0.1 2.7,0.9 L 55,72 c 0.5,1 0.1,2.2 -0.9,2.7 -0.3,0.1 -0.6,0.2 -0.9,0.2 z"
      id="path116"
      inkscape:connector-curvature="0" /></g><g
      id="g122"><path
      d="m 58.8,72.8 c -0.8,0 -1.6,-0.5 -1.9,-1.3 l -1.7,-4.3 c -0.4,-1 0.1,-2.2 1.1,-2.6 1,-0.4 2.2,0.1 2.6,1.1 l 1.7,4.3 c 0.4,1 -0.1,2.2 -1.1,2.6 -0.3,0.2 -0.5,0.2 -0.7,0.2 z"
      id="path120"
      inkscape:connector-curvature="0" /></g><g
      id="g126"><path
      d="m 64.6,69.2 c -0.7,0 -1.4,-0.4 -1.8,-1.1 l -1.9,-3.8 c -0.5,-1 -0.1,-2.2 0.9,-2.7 1,-0.5 2.2,-0.1 2.7,0.9 l 1.9,3.8 c 0.5,1 0.1,2.2 -0.9,2.7 -0.3,0.1 -0.6,0.2 -0.9,0.2 z"
      id="path124"
      inkscape:connector-curvature="0" /></g><g
      id="g130"><path
      d="m 70.3,65.4 c -0.7,0 -1.3,-0.3 -1.7,-0.9 l -1.8,-2.9 c -0.6,-0.9 -0.3,-2.2 0.6,-2.8 0.9,-0.6 2.2,-0.3 2.8,0.6 l 1.8,2.9 c 0.6,0.9 0.3,2.2 -0.6,2.8 -0.3,0.2 -0.7,0.3 -1.1,0.3 z"
      id="path128"
      inkscape:connector-curvature="0" /></g><g
      id="g134"><path
      d="m 76,61.6 c -0.7,0 -1.4,-0.4 -1.8,-1.1 l -1.9,-3.8 c -0.5,-1 -0.1,-2.2 0.9,-2.7 1,-0.5 2.2,-0.1 2.7,0.9 l 1.9,3.8 c 0.5,1 0.1,2.2 -0.9,2.7 -0.3,0.1 -0.6,0.2 -0.9,0.2 z"
      id="path132"
      inkscape:connector-curvature="0" /></g><g
      id="g138"><path
      d="m 82.7,56.8 c -0.5,0 -1,-0.2 -1.4,-0.6 l -3.8,-3.8 c -0.8,-0.8 -0.8,-2 0,-2.8 0.8,-0.8 2,-0.8 2.8,0 l 3.8,3.8 c 0.8,0.8 0.8,2 0,2.8 -0.4,0.4 -0.9,0.6 -1.4,0.6 z"
      id="path136"
      inkscape:connector-curvature="0" /></g><g
      id="g142"><path
      d="m 87.4,49.2 c -0.4,0 -0.7,-0.1 -1,-0.3 L 81.6,46 c -0.9,-0.6 -1.3,-1.8 -0.7,-2.7 0.6,-0.9 1.8,-1.3 2.7,-0.7 l 4.8,2.9 c 0.9,0.6 1.3,1.8 0.7,2.7 -0.3,0.7 -1,1 -1.7,1 z"
      id="path140"
      inkscape:connector-curvature="0" /></g><g
      id="g146"><path
      d="m 89.7,39.8 c -0.1,0 -0.3,0 -0.4,0 l -5.1,-1 c -1.1,-0.2 -1.8,-1.3 -1.6,-2.4 0.2,-1.1 1.3,-1.8 2.4,-1.6 l 5.1,1 c 1.1,0.2 1.8,1.3 1.6,2.4 -0.2,0.9 -1,1.6 -2,1.6 z"
      id="path144"
      inkscape:connector-curvature="0" /></g><g
      id="g150"><path
      d="m 82.7,31.2 c -0.9,0 -1.7,-0.6 -1.9,-1.5 -0.3,-1.1 0.4,-2.2 1.5,-2.4 L 87.6,26 c 1.1,-0.3 2.2,0.4 2.4,1.5 0.3,1.1 -0.4,2.2 -1.5,2.4 l -5.3,1.3 c -0.2,-0.1 -0.4,0 -0.5,0 z"
      id="path148"
      inkscape:connector-curvature="0" /></g><g
      id="g154"><path
      d="m 79.8,24.5 c -0.7,0 -1.3,-0.3 -1.7,-0.9 -0.6,-0.9 -0.3,-2.2 0.6,-2.8 l 6,-3.8 c 0.9,-0.6 2.2,-0.3 2.8,0.6 0.6,0.9 0.3,2.2 -0.6,2.8 l -6,3.8 c -0.3,0.2 -0.7,0.3 -1.1,0.3 z"
      id="path152"
      inkscape:connector-curvature="0" /></g><g
      id="g158"><path
      d="m 72.2,19.7 c -0.4,0 -0.7,-0.1 -1,-0.3 -0.9,-0.6 -1.3,-1.8 -0.7,-2.7 l 4.4,-7.4 c 0.6,-0.9 1.8,-1.3 2.7,-0.7 0.9,0.6 1.3,1.8 0.7,2.7 l -4.4,7.4 c -0.3,0.7 -1,1 -1.7,1 z"
      id="path156"
      inkscape:connector-curvature="0" /></g><g
      id="g162"><path
      d="m 45.6,46.2 c -0.3,0 -0.7,-0.1 -1,-0.3 l -4.8,-2.7 c -1,-0.5 -1.3,-1.8 -0.8,-2.7 0.5,-1 1.8,-1.3 2.7,-0.8 l 4.8,2.7 c 1,0.5 1.3,1.8 0.8,2.7 -0.3,0.7 -1,1.1 -1.7,1.1 z"
      id="path160"
      inkscape:connector-curvature="0" /></g><g
      id="g166"><path
      d="m 47.8,36.4 c -0.3,0 -0.7,-0.1 -1,-0.3 l -4.1,-2.4 c -1,-0.6 -1.3,-1.8 -0.7,-2.7 0.6,-1 1.8,-1.3 2.7,-0.7 l 4.1,2.4 c 1,0.6 1.3,1.8 0.7,2.7 -0.3,0.6 -1,1 -1.7,1 z"
      id="path164"
      inkscape:connector-curvature="0" /></g><g
      id="g170"><path
      d="m 50.5,28.3 c -0.5,0 -1,-0.2 -1.4,-0.6 l -3,-2.9 C 45.3,24 45.3,22.8 46,22 c 0.8,-0.8 2,-0.8 2.8,-0.1 l 3,2.9 c 0.8,0.8 0.8,2 0.1,2.8 -0.3,0.5 -0.9,0.7 -1.4,0.7 z"
    />
    </g>
      <g id="g174">
        <path
          d="m 55.1,21.6 c -0.7,0 -1.4,-0.4 -1.8,-1.1 l -1.9,-3.8 c -0.5,-1 -0.1,-2.2 0.9,-2.7 1,-0.5 2.2,-0.1 2.7,0.9 l 1.9,3.8 c 0.5,1 0.1,2.2 -0.9,2.7 -0.3,0.2 -0.6,0.2 -0.9,0.2 z"
        />
      </g>
      <g id="g178">
        <path
          d="m 63.7,18.8 c -1,0 -1.8,-0.7 -2,-1.7 l -1,-5.7 c -0.2,-1.1 0.6,-2.1 1.6,-2.3 1.1,-0.2 2.1,0.6 2.3,1.6 l 1,5.7 c 0.2,1.1 -0.6,2.1 -1.6,2.3 -0.1,0.1 -0.2,0.1 -0.3,0.1 z"
        />
      </g>
      <path
        d="m 20,22.7 c -0.2,0 -0.4,0 -0.6,-0.1 -1.1,-0.3 -1.6,-1.5 -1.3,-2.5 1.8,-5.7 8,-8.9 13.7,-7.1 1.1,0.3 1.6,1.5 1.3,2.5 -0.3,1 -1.5,1.6 -2.5,1.3 -3.6,-1.2 -7.6,0.9 -8.7,4.5 -0.3,0.9 -1.1,1.4 -1.9,1.4 z"
      />
      <path
        d="m 12.9,50.7 c -0.3,0 -0.7,-0.1 -1,-0.3 -3.7,-2.2 -4.9,-7 -2.8,-10.7 0.6,-1 1.8,-1.3 2.7,-0.7 1,0.6 1.3,1.8 0.7,2.7 -1.1,1.8 -0.5,4.1 1.3,5.2 1,0.6 1.3,1.8 0.7,2.7 -0.2,0.8 -0.9,1.1 -1.6,1.1 z"
      />
      <path
        d="m 25.9,41.1 c -0.1,0 -0.1,0 -0.2,0 C 24.6,41 23.8,40 23.9,38.9 24,37.7 23.2,36.6 22,36.5 c -1.1,-0.1 -1.9,-1.1 -1.8,-2.2 0.1,-1.1 1.1,-1.9 2.2,-1.8 1.6,0.2 3.1,1 4.1,2.3 1,1.3 1.5,2.9 1.3,4.5 0,1 -0.9,1.8 -1.9,1.8 z"
      />
      <path
        d="m 79,86.6 c -0.4,0 -0.9,-0.1 -1.2,-0.4 -1.7,-1.4 -2.8,-3.4 -3.1,-5.5 -0.2,-2.2 0.4,-4.4 1.8,-6.1 0.7,-0.9 1.9,-1 2.8,-0.3 0.9,0.7 1,1.9 0.3,2.8 -0.7,0.9 -1,2 -0.9,3.1 0.1,1.1 0.7,2.2 1.6,2.9 0.9,0.7 1,1.9 0.3,2.8 -0.4,0.4 -1,0.7 -1.6,0.7 z"
      />
      <path
        d="m 61.2,87.7 c -3.2,0 -6.2,-2.2 -6.9,-5.5 -0.2,-1.1 0.4,-2.1 1.5,-2.4 1.1,-0.2 2.1,0.4 2.4,1.5 0.2,0.8 0.7,1.5 1.4,1.9 0.7,0.4 1.5,0.6 2.3,0.4 1.1,-0.2 2.1,0.4 2.4,1.5 0.3,1.1 -0.4,2.1 -1.5,2.4 -0.5,0.1 -1,0.2 -1.6,0.2 z"
      />
      <path
        d="m 90.5,68.7 c -0.7,0 -1.5,-0.4 -1.8,-1.1 -0.6,-1.2 -2,-1.7 -3.1,-1.1 -1,0.5 -2.2,0.1 -2.7,-0.9 -0.5,-1 -0.1,-2.2 0.9,-2.7 3.2,-1.5 7,-0.2 8.5,3 0.5,1 0.1,2.2 -0.9,2.7 -0.3,0 -0.6,0.1 -0.9,0.1 z"
      />
    </g>
    </g>
  </switch>
</svg>
